<svg id="visual" viewBox="0 0 900 600" width="900" height="600" xmlns="http://www.w3.org/2000/svg" xmlns:xlink="http://www.w3.org/1999/xlink" version="1.1"><path d="M0 43L13.7 44C27.3 45 54.7 47 82 54C109.3 61 136.7 73 163.8 75C191 77 218 69 245.2 66C272.3 63 299.7 65 327 66C354.3 67 381.7 67 409 69C436.3 71 463.7 75 491 70C518.3 65 545.7 51 573 49C600.3 47 627.7 57 654.8 58C682 59 709 51 736.2 52C763.3 53 790.7 63 818 64C845.3 65 872.7 57 886.3 53L900 49L900 0L886.3 0C872.7 0 845.3 0 818 0C790.7 0 763.3 0 736.2 0C709 0 682 0 654.8 0C627.7 0 600.3 0 573 0C545.7 0 518.3 0 491 0C463.7 0 436.3 0 409 0C381.7 0 354.3 0 327 0C299.7 0 272.3 0 245.2 0C218 0 191 0 163.8 0C136.7 0 109.3 0 82 0C54.7 0 27.3 0 13.7 0L0 0Z" fill="#0a0f50"></path><path d="M0 223L13.7 224C27.3 225 54.7 227 82 232C109.3 237 136.7 245 163.8 232C191 219 218 185 245.2 195C272.3 205 299.7 259 327 285C354.3 311 381.7 309 409 299C436.3 289 463.7 271 491 258C518.3 245 545.7 237 573 242C600.3 247 627.7 265 654.8 268C682 271 709 259 736.2 270C763.3 281 790.7 315 818 304C845.3 293 872.7 237 886.3 209L900 181L900 47L886.3 51C872.7 55 845.3 63 818 62C790.7 61 763.3 51 736.2 50C709 49 682 57 654.8 56C627.7 55 600.3 45 573 47C545.7 49 518.3 63 491 68C463.7 73 436.3 69 409 67C381.7 65 354.3 65 327 64C299.7 63 272.3 61 245.2 64C218 67 191 75 163.8 73C136.7 71 109.3 59 82 52C54.7 45 27.3 43 13.7 42L0 41Z" fill="#221375"></path><path d="M0 325L13.7 325C27.3 325 54.7 325 82 328C109.3 331 136.7 337 163.8 327C191 317 218 291 245.2 307C272.3 323 299.7 381 327 398C354.3 415 381.7 391 409 381C436.3 371 463.7 375 491 362C518.3 349 545.7 319 573 320C600.3 321 627.7 353 654.8 364C682 375 709 365 736.2 370C763.3 375 790.7 395 818 388C845.3 381 872.7 347 886.3 330L900 313L900 179L886.3 207C872.7 235 845.3 291 818 302C790.7 313 763.3 279 736.2 268C709 257 682 269 654.8 266C627.7 263 600.3 245 573 240C545.7 235 518.3 243 491 256C463.7 269 436.3 287 409 297C381.7 307 354.3 309 327 283C299.7 257 272.3 203 245.2 193C218 183 191 217 163.8 230C136.7 243 109.3 235 82 230C54.7 225 27.3 223 13.7 222L0 221Z" fill="#3c2a95"></path><path d="M0 433L13.7 424C27.3 415 54.7 397 82 396C109.3 395 136.7 411 163.8 409C191 407 218 387 245.2 398C272.3 409 299.7 451 327 465C354.3 479 381.7 465 409 454C436.3 443 463.7 435 491 420C518.3 405 545.7 383 573 394C600.3 405 627.7 449 654.8 464C682 479 709 465 736.2 466C763.3 467 790.7 483 818 477C845.3 471 872.7 443 886.3 429L900 415L900 311L886.3 328C872.7 345 845.3 379 818 386C790.7 393 763.3 373 736.2 368C709 363 682 373 654.8 362C627.7 351 600.3 319 573 318C545.7 317 518.3 347 491 360C463.7 373 436.3 369 409 379C381.7 389 354.3 413 327 396C299.7 379 272.3 321 245.2 305C218 289 191 315 163.8 325C136.7 335 109.3 329 82 326C54.7 323 27.3 323 13.7 323L0 323Z" fill="#221375"></path><path d="M0 601L13.7 601C27.3 601 54.7 601 82 601C109.3 601 136.7 601 163.8 601C191 601 218 601 245.2 601C272.3 601 299.7 601 327 601C354.3 601 381.7 601 409 601C436.3 601 463.7 601 491 601C518.3 601 545.7 601 573 601C600.3 601 627.7 601 654.8 601C682 601 709 601 736.2 601C763.3 601 790.7 601 818 601C845.3 601 872.7 601 886.3 601L900 601L900 413L886.3 427C872.7 441 845.3 469 818 475C790.7 481 763.3 465 736.2 464C709 463 682 477 654.8 462C627.7 447 600.3 403 573 392C545.7 381 518.3 403 491 418C463.7 433 436.3 441 409 452C381.7 463 354.3 477 327 463C299.7 449 272.3 407 245.2 396C218 385 191 405 163.8 407C136.7 409 109.3 393 82 394C54.7 395 27.3 413 13.7 422L0 431Z" fill="#0a0f50"></path></svg>