<?xml version="1.0" encoding="UTF-8" standalone="no"?>
<svg
   xmlns:dc="http://purl.org/dc/elements/1.1/"
   xmlns:cc="http://creativecommons.org/ns#"
   xmlns:rdf="http://www.w3.org/1999/02/22-rdf-syntax-ns#"
   xmlns:svg="http://www.w3.org/2000/svg"
   xmlns="http://www.w3.org/2000/svg"
   xmlns:sodipodi="http://sodipodi.sourceforge.net/DTD/sodipodi-0.dtd"
   xmlns:inkscape="http://www.inkscape.org/namespaces/inkscape"
   version="1.1"
   id="svg2"
   xml:space="preserve"
   width="816"
   height="816"
   viewBox="0 0 816 816"
   sodipodi:docname="magnifying_glass.eps"><metadata
     id="metadata8"><rdf:RDF><cc:Work
         rdf:about=""><dc:format>image/svg+xml</dc:format><dc:type
           rdf:resource="http://purl.org/dc/dcmitype/StillImage" /></cc:Work></rdf:RDF></metadata><defs
     id="defs6" /><sodipodi:namedview
     pagecolor="#ffffff"
     bordercolor="#666666"
     borderopacity="1"
     objecttolerance="10"
     gridtolerance="10"
     guidetolerance="10"
     inkscape:pageopacity="0"
     inkscape:pageshadow="2"
     inkscape:window-width="640"
     inkscape:window-height="480"
     id="namedview4" /><g
     id="g10"
     inkscape:groupmode="layer"
     inkscape:label="ink_ext_XXXXXX"
     transform="matrix(1.3333333,0,0,-1.3333333,0,816)"><g
       id="g12"
       transform="scale(0.1)"><path
         d="M 0,0 H 6120 V 6120 H 0 Z"
         style="fill:#ffffff;fill-opacity:1;fill-rule:nonzero;stroke:none"
         id="path14" /><path
         d="M 1006.08,3552.23 C 206.797,1999.3 1979.91,2672.93 2505.04,2311.07 2837.17,2082.2 2835.04,1431.19 3147.25,1134.94 3571.39,732.469 3983.17,748.98 4475.03,1019.27 7276.25,2558.59 2305.43,6076.7 1006.08,3552.23"
         style="fill:#f6ab1f;fill-opacity:1;fill-rule:nonzero;stroke:none"
         id="path16" /><path
         d="m 2976.59,971.301 c -998.32,0 -1807.63,38.509 -1807.63,86.029 0,47.52 809.31,86.05 1807.63,86.05 54.72,0 108.81,-0.12 162.29,-0.34 2.77,-2.74 5.55,-5.42 8.37,-8.1 67.93,-64.46 135.52,-118.16 203.2,-161.799 -120.6,-1.211 -245.72,-1.84 -373.86,-1.84 m 1477.21,36.429 c 7.05,3.79 14.14,7.65 21.23,11.54 44.97,24.71 87.85,49.88 128.85,75.57 115.55,-11.33 180.35,-24.06 180.35,-37.51 0,-18.47 -122.27,-35.58 -330.43,-49.6"
         style="fill:#dddbd9;fill-opacity:1;fill-rule:nonzero;stroke:none"
         id="path18" /><path
         d="m 3350.45,973.141 c -67.68,43.639 -135.27,97.339 -203.2,161.799 -2.82,2.68 -5.6,5.36 -8.37,8.1 646.17,-2.74 1194.59,-21.66 1465,-48.2 -41,-25.69 -83.88,-50.86 -128.85,-75.57 -7.09,-3.89 -14.18,-7.75 -21.23,-11.54 -258.59,-17.41 -649.62,-30.05 -1103.35,-34.589"
         style="fill:#d1921b;fill-opacity:1;fill-rule:nonzero;stroke:none"
         id="path20" /><path
         d="M 2453.82,2970.58 1250.49,1643.42 c -16.5,-18.2 33.47,-90.4 111.63,-161.26 78.15,-70.86 154.89,-113.56 171.39,-95.35 l 1203.33,1327.17 -283.02,256.6"
         style="fill:#a8793e;fill-opacity:1;fill-rule:nonzero;stroke:none"
         id="path22" /><path
         d="m 1272.81,1630.82 c 4.24,-16.68 37.11,-67.59 106.1,-130.14 69,-62.56 122.87,-90.3 139.88,-92.89 L 2701.52,2712.25 2455.55,2935.26 1272.81,1630.82 m 249.06,-273.34 c -20.69,0 -44.42,11.37 -63.09,21.76 -33.99,18.91 -74.28,48.89 -113.45,84.4 -37.54,34.04 -156.67,148.8 -113.36,196.57 L 2435.3,2987.37 c 9.28,10.22 25.09,11 35.31,1.73 l 283.02,-256.6 c 4.91,-4.46 7.85,-10.68 8.18,-17.3 0.32,-6.63 -2,-13.11 -6.45,-18.02 L 1552.03,1370.01 c -8.21,-9.04 -18.72,-12.53 -30.16,-12.53"
         style="fill:#8e552f;fill-opacity:1;fill-rule:nonzero;stroke:none"
         id="path24" /><path
         d="m 2743.49,2721.31 c -20.18,-22.26 -99.89,17.15 -178.05,88.01 -78.15,70.86 -125.15,146.34 -104.97,168.6 20.18,22.26 99.89,-17.15 178.05,-88.02 78.15,-70.86 125.15,-146.34 104.97,-168.59"
         style="fill:#a8793e;fill-opacity:1;fill-rule:nonzero;stroke:none"
         id="path26" /><path
         d="m 2481.15,2959.17 c 3.99,-19.94 36.35,-72.64 101.09,-131.33 64.73,-58.7 120.34,-85.76 140.58,-87.79 -4,19.94 -36.36,72.64 -101.1,131.33 -64.72,58.7 -120.33,85.76 -140.57,87.79 m 262.34,-237.86 h 0.1 -0.1 m -17.24,-31.35 c -64.14,0 -164.17,88.65 -177.6,100.83 -39.47,35.79 -72.77,74.08 -93.79,107.84 -27.02,43.4 -31.36,75.73 -12.91,96.09 51.83,57.15 196.98,-71.44 213.36,-86.3 16.38,-14.85 158.53,-146.74 106.7,-203.9 v -0.01 c -9.32,-10.28 -21.68,-14.55 -35.76,-14.55"
         style="fill:#8e552f;fill-opacity:1;fill-rule:nonzero;stroke:none"
         id="path28" /><path
         d="m 2962.2,3366.55 -394.05,-434.6 c -10.21,-11.27 8.16,-44.57 41.04,-74.38 32.89,-29.82 67.82,-44.85 78.04,-33.59 l 394.05,434.6 -119.08,107.97"
         style="fill:#c6c5c3;fill-opacity:1;fill-rule:nonzero;stroke:none"
         id="path30" /><path
         d="m 2585.64,2921.46 c 1.79,-7.06 11.54,-26 36.98,-49.08 25.45,-23.06 45.26,-30.92 52.47,-32.02 l 377.94,416.84 -89.45,81.1 -377.94,-416.84 m 91.43,-121.25 c -7.6,0 -16.9,1.9 -28.27,6.79 -16.7,7.19 -35.55,19.89 -53.04,35.75 -17.5,15.86 -31.98,33.37 -40.76,49.3 -15.64,28.35 -9.54,44.65 -1.66,53.34 l 407.47,449.41 148.72,-134.84 -407.48,-449.41 c -4.87,-5.37 -12.69,-10.34 -24.98,-10.34"
         style="fill:#68696b;fill-opacity:1;fill-rule:nonzero;stroke:none"
         id="path32" /><path
         d="m 1467.39,1432.34 c -24.07,15.08 -54.43,37.47 -88.48,68.34 -10.89,9.88 -20.88,19.46 -30,28.67 l 1169.84,1290.23 c 9.46,-9.69 19.46,-19.32 29.9,-28.79 7.93,-7.19 46.06,-41.05 89.17,-67.57 L 1467.39,1432.34"
         style="fill:#976732;fill-opacity:1;fill-rule:nonzero;stroke:none"
         id="path34" /><path
         d="m 1443.76,1406.28 -112.38,103.74 17.53,19.33 c 9.12,-9.21 19.11,-18.79 30,-28.67 34.05,-30.87 64.41,-53.26 88.48,-68.34 l -23.63,-26.06"
         style="fill:#804a27;fill-opacity:1;fill-rule:nonzero;stroke:none"
         id="path36" /><path
         d="m 2637.82,2723.22 c -43.11,26.52 -81.24,60.38 -89.17,67.57 -10.44,9.47 -20.44,19.1 -29.9,28.79 l 15.96,17.61 112.59,-103.51 -9.48,-10.46"
         style="fill:#804a27;fill-opacity:1;fill-rule:nonzero;stroke:none"
         id="path38" /><path
         d="m 1522.8,1358.54 c -55.21,-0.01 -145.98,77.72 -176.89,105.74 -37.54,34.04 -156.67,148.8 -113.48,196.43 l 1198.15,1321.46 c 9.26,10.21 25.08,10.99 35.31,1.73 10.23,-9.28 11,-25.09 1.73,-35.33 L 1273.31,1631.38 c 4.32,-16.7 37.25,-67.56 106.18,-130.05 68.93,-62.5 122.76,-90.31 139.8,-92.98 L 2713.6,2725.56 c 9.26,10.22 25.09,10.99 35.31,1.73 10.23,-9.28 11,-25.09 1.73,-35.33 L 1552.49,1370.52 c -7.63,-8.41 -17.84,-11.98 -29.69,-11.98"
         style="fill:#8e552f;fill-opacity:1;fill-rule:nonzero;stroke:none"
         id="path40" /><path
         d="m 2721.67,2684.79 c -64.06,0 -164.17,88.75 -177.61,100.94 -39.46,35.77 -72.78,74.05 -93.82,107.76 -27.08,43.37 -31.46,75.66 -13.04,95.98 9.28,10.23 25.09,11.01 35.31,1.72 9.53,-8.63 10.85,-22.93 3.51,-33.11 -0.37,-15.8 31.88,-72.07 101.63,-135.31 69.74,-63.24 128.95,-89.62 144.58,-87.94 9.42,8.3 23.79,8.38 33.3,-0.25 10.23,-9.27 11,-25.08 1.73,-35.31 -9.28,-10.23 -21.58,-14.48 -35.59,-14.48"
         style="fill:#8e552f;fill-opacity:1;fill-rule:nonzero;stroke:none"
         id="path42" /><path
         d="m 2810.33,3277.29 -51.96,35.11 c 16.77,-12.78 34.11,-24.45 51.96,-35.11"
         style="fill:#c6c5c3;fill-opacity:1;fill-rule:nonzero;stroke:none"
         id="path44" /><path
         d="m 2797.51,3255.83 c -18.87,11.27 -37.14,23.61 -54.29,36.69 l 29.15,40.59 51.96,-35.11 -26.82,-42.17"
         style="fill:#68696b;fill-opacity:1;fill-rule:nonzero;stroke:none"
         id="path46" /><path
         d="m 2758.37,3312.4 54.21,-36.41 -2.25,1.3 317.72,-214.66 c 340.97,-259.91 916.51,-78.16 1285.5,405.93 368.98,484.1 391.68,1087.22 50.7,1347.12 L 4090.64,5068.42 2758.37,3312.4"
         style="fill:#c6c5c3;fill-opacity:1;fill-rule:nonzero;stroke:none"
         id="path48" /><path
         d="m 3498.16,2918.78 c -145.19,0 -276.94,41.6 -384.69,123.52 l -317.13,214.28 0.08,0.14 -51.99,34.93 27.88,41.5 54.21,-36.41 -0.09,-0.15 316.77,-214.08 c 158.26,-120.63 374.71,-146.23 609.56,-72.07 237.93,75.13 465.54,243.21 640.9,473.28 175.36,230.06 277.11,494.08 286.5,743.41 9.24,245.8 -72.6,447.57 -230.51,568.25 l -373.01,252.33 28.01,41.42 374.75,-253.56 c 171.57,-130.78 260.61,-347.52 250.72,-610.32 -9.77,-259.54 -115.14,-533.65 -296.69,-771.84 -181.55,-238.19 -417.94,-412.44 -665.61,-490.66 -93.12,-29.4 -183.75,-43.97 -269.66,-43.97"
         style="fill:#68696b;fill-opacity:1;fill-rule:nonzero;stroke:none"
         id="path50" /><path
         d="m 3990.03,3761.02 c -369.89,-485.29 -908.52,-696.69 -1203.05,-472.19 -294.54,224.5 -233.45,799.89 136.43,1285.17 369.89,485.28 908.51,696.69 1203.05,472.19 294.54,-224.5 233.45,-799.9 -136.43,-1285.17"
         style="fill:#b0b0ae;fill-opacity:1;fill-rule:nonzero;stroke:none"
         id="path52" /><path
         d="m 3840.57,5111.23 c -280.68,0 -632.74,-205.32 -897.28,-552.39 -176.16,-231.12 -287.1,-489.61 -312.39,-727.86 -24.82,-233.71 36,-419.19 171.23,-522.27 135.23,-103.08 330.18,-112.57 548.98,-26.68 223.03,87.53 442.87,263.02 619.04,494.14 360.93,473.54 424.26,1034.35 141.16,1250.13 -75.62,57.64 -168.46,84.93 -270.74,84.93 M 3072.04,3173.81 c -114.88,0 -217.17,31.84 -300.22,95.14 -149.67,114.07 -217.37,315.55 -190.64,567.31 26.24,247.22 140.72,514.61 322.35,752.89 181.63,238.3 409.11,419.55 640.53,510.39 235.68,92.49 447.9,80.61 597.56,-33.47 149.67,-114.08 217.37,-315.55 190.65,-567.31 -26.25,-247.23 -140.74,-514.61 -322.36,-752.9 -181.63,-238.29 -409.11,-419.55 -640.53,-510.38 -104.91,-41.17 -205.18,-61.67 -297.34,-61.67"
         style="fill:#68696b;fill-opacity:1;fill-rule:nonzero;stroke:none"
         id="path54" /><path
         d="m 3987.45,3766.83 c -336.27,-441.17 -791.21,-659.81 -1016.15,-488.36 -224.94,171.45 -134.7,668.08 201.56,1109.24 336.27,441.17 791.21,659.82 1016.15,488.37 224.95,-171.46 134.7,-668.09 -201.56,-1109.25"
         style="fill:#a1dad7;fill-opacity:1;fill-rule:nonzero;stroke:none"
         id="path56" /><path
         d="m 3998.62,4910.32 c -231.2,0 -552.33,-205.13 -805.88,-537.76 -160.28,-210.29 -269.14,-439.38 -306.52,-645.08 -36.3,-199.79 -0.7,-352.19 100.23,-429.13 213.6,-162.8 653.75,54.14 981.12,483.64 l 19.88,-15.16 -19.88,15.16 c 327.36,429.49 419.91,911.38 206.29,1074.2 -48.18,36.72 -107.91,54.13 -175.24,54.13 m -838.61,-1715.5 c -78.93,0 -148.06,21.23 -203.87,63.77 -116.64,88.91 -158.94,258.6 -119.11,477.83 38.77,213.32 150.97,450 315.95,666.45 164.98,216.45 363.47,387.37 558.87,481.29 200.82,96.52 375.67,100.71 492.32,11.8 116.64,-88.91 158.94,-258.61 119.11,-477.83 -38.76,-213.32 -150.97,-450.01 -315.95,-666.45 -164.98,-216.45 -363.46,-387.38 -558.87,-481.29 -104.74,-50.34 -202.42,-75.57 -288.45,-75.57"
         style="fill:#818283;fill-opacity:1;fill-rule:nonzero;stroke:none"
         id="path58" /><path
         d="m 4168.21,3245.57 -347.55,288.06 c 66.93,64.02 130.5,135.15 189.25,212.23 110.73,145.28 196.51,301.39 252.55,457.13 14.46,38.29 26.96,76.31 37.42,113.84 l 357.44,-272.89 c -40.2,-192.13 -130.8,-385.92 -263.66,-560.22 -68.09,-89.34 -144.06,-169.32 -225.45,-238.15"
         style="fill:#858686;fill-opacity:1;fill-rule:nonzero;stroke:none"
         id="path60" /><path
         d="m 4187.61,3229.49 -19.4,16.08 c 81.39,68.83 157.36,148.81 225.45,238.15 132.86,174.3 223.46,368.09 263.66,560.22 l 20.92,-15.97 -32.17,-121.47 -157.05,-329.82 -301.41,-347.19"
         style="fill:#474648;fill-opacity:1;fill-rule:nonzero;stroke:none"
         id="path62" /><path
         d="m 4670.76,4399.41 -336.19,280.7 c -8.23,90.36 -31.33,170.99 -68.5,239.45 l 183.58,-124.18 c 119.2,-91.1 195.06,-228.4 221.11,-395.97"
         style="fill:#858686;fill-opacity:1;fill-rule:nonzero;stroke:none"
         id="path64" /><path
         d="m 4699.08,4375.76 -28.32,23.65 c -26.05,167.57 -101.91,304.87 -221.11,395.97 l -183.58,124.18 c -9.97,18.39 -20.98,35.92 -32.97,52.5 l 212.08,-143.48 169.17,-186.18 84.73,-266.64"
         style="fill:#474648;fill-opacity:1;fill-rule:nonzero;stroke:none"
         id="path66" /><path
         d="m 4334.57,4680.11 v 0 c -10.44,114.63 -44.83,213.61 -101.47,291.95 v 0 c 11.99,-16.58 23,-34.11 32.97,-52.5 37.17,-68.46 60.27,-149.09 68.5,-239.45"
         style="fill:#474648;fill-opacity:1;fill-rule:nonzero;stroke:none"
         id="path68" /><path
         d="m 4666.95,4095.83 -352.74,277.81 c 3.37,14.93 6.4,29.76 9.07,44.49 7.55,41.55 12.15,81.32 13.85,119.11 l 343.61,-257.75 c 0.28,-17.21 0.08,-34.67 -0.58,-52.36 -1.64,-43.4 -6.07,-87.27 -13.21,-131.3"
         style="fill:#f5f6f5;fill-opacity:1;fill-rule:nonzero;stroke:none"
         id="path70" /><path
         d="m 4690.52,4077.27 -23.57,18.56 c 7.14,44.03 11.57,87.9 13.21,131.3 0.66,17.69 0.86,35.15 0.58,52.36 l 31.76,-23.82 -21.98,-178.4"
         style="fill:#e2e1df;fill-opacity:1;fill-rule:nonzero;stroke:none"
         id="path72" /><path
         d="m 3460.07,2971.36 -295.29,209.01 c 65.39,9.03 133.94,27.38 204.6,55.11 80.69,31.67 160.89,74.33 238.86,126.58 l 334.19,-271.03 c -61.91,-33.23 -125.42,-60.3 -189.67,-80.59 -55.4,-17.5 -109.75,-29.44 -162.58,-35.89 l -130.11,-3.19"
         style="fill:#f5f6f5;fill-opacity:1;fill-rule:nonzero;stroke:none"
         id="path74" /><path
         d="m 3590.18,2974.55 c 52.83,6.45 107.18,18.39 162.58,35.89 64.25,20.29 127.76,47.36 189.67,80.59 l 25.04,-20.31 -284.22,-93.88 -93.07,-2.29"
         style="fill:#e2e1df;fill-opacity:1;fill-rule:nonzero;stroke:none"
         id="path76" /><path
         d="m 3006,3227.9 c -77.02,9.67 -145.94,36.66 -203.87,80.81 -115.42,87.98 -176.63,235.98 -176.66,422.78 0,32.06 1.79,65.26 5.43,99.49 25.29,238.25 136.23,496.74 312.39,727.86 14.33,18.79 28.91,37.17 43.72,55.12 l 191.31,-178.53 c -8.53,-10.74 -16.97,-21.58 -25.34,-32.56 -164.98,-216.45 -277.18,-453.13 -315.95,-666.45 -9.76,-53.74 -14.59,-104.5 -14.6,-151.82 -0.03,-145.74 45.66,-258.9 133.71,-326.01 15.61,-11.9 32.25,-22.12 49.86,-30.69"
         style="fill:#959595;fill-opacity:1;fill-rule:nonzero;stroke:none"
         id="path78" /><path
         d="m 4235.97,4867.87 c -9.9,10.1 -20.5,19.47 -31.8,28.09 -55.81,42.54 -124.94,63.76 -203.87,63.76 -60.98,0 -127.8,-12.67 -198.84,-37.97 l -181.61,152.19 c 76.37,24.53 150.75,37.29 220.72,37.29 102.28,0 195.12,-27.29 270.74,-84.93 54.08,-41.22 95.53,-95.04 124.66,-158.43"
         style="fill:#969797;fill-opacity:1;fill-rule:nonzero;stroke:none"
         id="path80" /><path
         d="m 2797.51,3255.83 c -18.87,11.27 -37.14,23.61 -54.29,36.69 l 29.15,40.6 51.96,-35.12 -26.82,-42.17"
         style="fill:#68696b;fill-opacity:1;fill-rule:nonzero;stroke:none"
         id="path82" /><path
         d="m 3498.16,2918.78 c -145.19,0 -276.94,41.6 -384.69,123.52 l -317.13,214.28 0.09,0.14 -52,34.93 27.88,41.5 54.21,-36.41 -0.09,-0.15 316.77,-214.08 c 158.26,-120.63 374.71,-146.23 609.56,-72.07 237.93,75.13 465.54,243.21 640.9,473.28 175.36,230.06 277.11,494.08 286.5,743.41 9.24,245.8 -72.6,447.57 -230.51,568.25 l -373.01,252.33 28.01,41.42 374.75,-253.56 c 171.57,-130.78 260.61,-347.52 250.72,-610.32 -9.77,-259.54 -115.14,-533.65 -296.69,-771.84 -181.55,-238.19 -417.94,-412.44 -665.61,-490.66 -93.12,-29.4 -183.75,-43.97 -269.66,-43.97"
         style="fill:#68696b;fill-opacity:1;fill-rule:nonzero;stroke:none"
         id="path84" /><path
         d="m 3840.57,5111.23 c -280.68,0 -632.74,-205.32 -897.28,-552.39 -176.16,-231.12 -287.1,-489.61 -312.39,-727.86 -24.82,-233.71 36,-419.19 171.23,-522.27 135.23,-103.08 330.18,-112.57 548.98,-26.68 223.03,87.53 442.87,263.02 619.04,494.14 360.93,473.54 424.26,1034.35 141.16,1250.13 -75.62,57.64 -168.46,84.93 -270.74,84.93 M 3072.04,3173.81 c -114.88,0 -217.17,31.84 -300.22,95.14 -149.67,114.07 -217.37,315.55 -190.64,567.31 26.24,247.22 140.72,514.61 322.35,752.89 181.63,238.3 409.11,419.55 640.53,510.39 235.68,92.49 447.9,80.61 597.56,-33.47 149.67,-114.08 217.37,-315.55 190.65,-567.31 -26.25,-247.23 -140.74,-514.61 -322.36,-752.9 -181.63,-238.29 -409.11,-419.55 -640.53,-510.38 -104.91,-41.17 -205.18,-61.67 -297.34,-61.67"
         style="fill:#68696b;fill-opacity:1;fill-rule:nonzero;stroke:none"
         id="path86" /><path
         d="m 3998.62,4910.32 c -231.2,0 -552.33,-205.13 -805.88,-537.76 -160.28,-210.29 -269.14,-439.38 -306.52,-645.08 -36.3,-199.79 -0.7,-352.19 100.23,-429.13 213.6,-162.8 653.75,54.14 981.12,483.64 l 19.88,-15.16 -19.88,15.16 c 327.36,429.49 419.91,911.38 206.29,1074.2 -48.18,36.72 -107.91,54.13 -175.24,54.13 m -838.61,-1715.5 c -78.93,0 -148.06,21.23 -203.87,63.77 -116.64,88.91 -158.94,258.6 -119.11,477.83 38.77,213.32 150.97,450 315.95,666.45 164.98,216.45 363.47,387.37 558.87,481.29 200.82,96.52 375.67,100.71 492.32,11.8 116.64,-88.91 158.94,-258.61 119.11,-477.83 -38.76,-213.32 -150.97,-450.01 -315.95,-666.45 -164.98,-216.45 -363.46,-387.38 -558.87,-481.29 -104.74,-50.34 -202.42,-75.57 -288.45,-75.57"
         style="fill:#68696b;fill-opacity:1;fill-rule:nonzero;stroke:none"
         id="path88" /><path
         d="m 3343.36,3820.4 c -53.1,0 -97.95,14.73 -130.15,45.83 -119.61,115.55 -19.34,413.36 223.94,665.19 177.8,184.04 382.77,292.58 526.92,292.58 53.1,0 97.95,-14.73 130.15,-45.83 119.61,-115.55 19.34,-413.36 -223.94,-665.19 -177.8,-184.04 -382.77,-292.59 -526.92,-292.58"
         style="fill:#c0e7e4;fill-opacity:1;fill-rule:nonzero;stroke:none"
         id="path90" /><path
         d="m 4054.61,4502 c -52.03,-70.24 -151.15,-85 -221.4,-32.96 -70.23,52.03 -85,151.16 -32.96,221.4 52.04,70.24 151.16,85 221.4,32.96 70.24,-52.03 85,-151.15 32.96,-221.4"
         style="fill:#ffffff;fill-opacity:1;fill-rule:nonzero;stroke:none"
         id="path92" /><path
         d="m 3681.46,4446.99 c -22.21,-29.98 -64.51,-36.28 -94.49,-14.07 -29.98,22.21 -36.28,64.51 -14.07,94.49 22.21,29.97 64.51,36.27 94.49,14.06 29.97,-22.2 36.27,-64.51 14.07,-94.48"
         style="fill:#ffffff;fill-opacity:1;fill-rule:nonzero;stroke:none"
         id="path94" /></g></g></svg>
